<svg width="354" height="459" viewBox="0 0 354 459" fill="none" xmlns="http://www.w3.org/2000/svg">
<path fill-rule="evenodd" clip-rule="evenodd" d="M354 101.705C317.636 53.749 261.495 23 198.5 23C88.8715 23 0 116.125 0 231C0 345.875 88.8715 439 198.5 439C261.495 439 317.636 408.251 354 360.295V101.705Z" fill="#FFE5A3"/>
<path fill-rule="evenodd" clip-rule="evenodd" d="M168.024 58.0488C168.414 54.4933 173.469 51.1517 175.147 54.3142C175.64 55.244 175.527 56.3646 175.381 57.4062C174.719 62.144 173.653 66.8259 172.2 71.3855C195.787 85.8658 203.459 115.842 209.123 142.848C211.815 155.683 214.518 168.614 214.695 181.724C214.792 188.895 213.873 196.675 208.933 201.893C216.812 219.041 224.697 236.201 231.517 253.793C241.271 278.949 248.912 305.977 244.917 332.647C242.37 349.647 235.227 365.572 230.327 382.052C225.719 397.547 223.085 413.622 222.508 429.772C209.123 450.166 109.865 487.135 83.2017 418.303C70.8355 386.378 66.6158 339.203 82.6442 314.31C93.1426 298.005 139.283 241.424 139.283 241.424C139.283 241.424 128.74 250.437 123.605 251.717C118.47 252.998 110.134 250.505 110.134 250.505C110.134 250.505 105.586 247.922 104.248 247.922C103.651 247.922 102.335 264.618 96.723 269.078C94.5363 270.816 89.5057 274.49 86.0027 272.963C83.2656 271.77 93.6982 265.119 91.5868 265.358C88.9377 265.658 86.1432 265.411 83.2035 264.618C97.5157 259.411 60.2441 197.448 60.9755 195.27C60.9872 203.777 55.6336 212.061 47.853 215.576C50.78 209.033 52.6278 202.014 53.3002 194.883C51.2249 197.913 48.6858 200.627 45.7977 202.904C48.1915 185.605 48.3853 168.006 46.373 150.659C45.0879 139.582 42.9072 128.385 44.6465 117.369C47.7174 97.9194 62.6742 82.1498 79.6363 72.0292C105.812 56.4116 140.729 52.1554 166.494 68.4347C168.838 65.7235 167.633 61.6042 168.024 58.0488Z" fill="white"/>
<path fill-rule="evenodd" clip-rule="evenodd" d="M139.258 204.844C143.126 204.844 146.262 201.457 146.262 197.278C146.262 193.099 143.126 189.711 139.258 189.711C135.39 189.711 132.254 193.099 132.254 197.278C132.254 201.457 135.39 204.844 139.258 204.844ZM90.911 220.601C94.226 220.601 96.9134 217.488 96.9134 213.647C96.9134 209.806 94.226 206.692 90.911 206.692C87.5959 206.692 84.9085 209.806 84.9085 213.647C84.9085 217.488 87.5959 220.601 90.911 220.601Z" fill="#FFB61D"/>
<path fill-rule="evenodd" clip-rule="evenodd" d="M166.694 57.9676C167.08 54.4348 172.081 51.1144 173.741 54.2568C174.229 55.1807 174.116 56.2942 173.972 57.3291C173.317 62.0367 172.263 66.6888 170.826 71.2194C194.159 85.6075 201.749 115.393 207.353 142.227C210.016 154.98 212.69 167.828 212.865 180.855C212.96 187.98 212.052 195.711 207.164 200.896C214.959 217.934 222.759 234.985 229.507 252.465C239.156 277.461 246.715 304.316 242.762 330.817C241.072 342.152 237.333 353.007 233.592 363.87L233.591 363.871C231.757 369.195 229.923 374.521 228.328 379.907C223.771 395.303 221.165 411.277 220.593 427.323C208.931 410.881 208.76 387.136 220.186 370.528C211.467 386.464 210.847 406.572 218.568 423.015C216.469 403.803 222.945 385.446 229.469 366.954C234.201 353.542 238.958 340.058 240.487 326.125C242.796 305.076 237.613 283.918 230.831 263.858C224.662 245.611 217.149 227.852 209.643 210.113C208.066 206.384 206.343 202.469 203.068 200.088C200.418 198.163 198.968 195.027 197.725 191.996C194.497 184.118 191.919 175.998 189.342 167.878L189.342 167.878L189.342 167.877L189.342 167.877L189.342 167.877L189.342 167.877L189.342 167.877L189.341 167.876L189.341 167.876C186.827 159.955 184.313 152.034 181.194 144.337C174.877 128.748 165.562 113.619 151.244 104.793C140.015 97.8716 126.532 95.369 113.342 95.273C95.0613 95.14 75.7084 100.04 63.2669 113.435C54.2265 123.168 49.7345 136.522 48.9623 149.783C48.5932 156.122 49.0108 162.511 49.4276 168.887C50.0648 178.635 50.7001 188.353 48.5178 197.813C55.6125 189.971 57.4115 182.824 59.2849 175.382L59.2849 175.382L59.285 175.382C59.724 173.637 60.1671 171.877 60.6834 170.088C58.2679 184.28 55.2201 198.167 50.51 211.768C55.1079 206.755 58.6367 200.766 60.7935 194.315C60.805 202.768 55.5089 210.999 47.8117 214.492C50.7073 207.991 52.5353 201.016 53.2005 193.93C51.1474 196.941 48.6356 199.638 45.7784 201.9C48.1466 184.712 48.3383 167.225 46.3476 149.988C46.1133 147.96 45.849 145.928 45.5844 143.894C44.4129 134.887 43.236 125.839 44.6396 116.91C47.6775 97.5843 62.474 81.9151 79.2541 71.859C105.149 56.3409 139.692 52.1117 165.181 68.2873C166.779 66.4295 166.709 63.9064 166.638 61.3604C166.606 60.2146 166.574 59.0641 166.694 57.9676ZM80.39 74.6138C73.3187 78.8011 66.5253 83.6021 60.98 89.6672C48.6665 103.135 43.424 122.734 47.3693 140.551C51.5226 125.684 59.7922 111.341 72.9168 103.216C77.5208 100.366 82.6023 98.3481 87.8036 96.8427C108.227 90.9316 130.868 93.0809 149.814 102.729C155.784 105.77 161.431 109.554 166.075 114.383C174.959 123.623 179.625 136.018 184.065 148.043L202.435 197.805C202.981 199.281 205.123 199.573 206.446 198.72C207.769 197.867 208.432 196.307 208.927 194.813C213.416 181.261 210.071 166.758 206.82 152.66L206.819 152.659L206.819 152.657L206.819 152.655L206.816 152.643C206.334 150.553 205.854 148.471 205.402 146.403C204.652 142.971 203.976 139.513 203.301 136.053L203.301 136.052L203.3 136.051L203.3 136.05L203.3 136.049L203.3 136.049L203.3 136.048L203.3 136.047C201.162 125.1 199.023 114.143 194.509 103.986C187.996 89.3301 176.562 76.9126 162.492 69.2145C148.422 61.5164 131.799 58.5832 115.944 61.0009C103.321 62.9259 91.3772 68.1078 80.39 74.6138ZM172.614 56.0737C172.781 54.9044 171.321 53.9923 170.196 54.3526C169.071 54.7129 168.396 55.9013 168.205 57.0671C168.074 57.8714 168.121 58.6872 168.169 59.5037C168.19 59.8707 168.211 60.2378 168.216 60.6041C168.25 63.0698 167.55 65.4796 166.857 67.8459C166.603 68.7107 167.602 69.3811 168.434 69.7292C168.771 69.8703 169.195 69.9996 169.47 69.7588C169.607 69.6383 169.666 69.4537 169.718 69.2785C171.008 64.9564 171.977 60.5387 172.614 56.0737ZM131.269 124.936L108.833 144.552C108.165 143.802 108.96 142.671 109.711 142.003L127.664 126.043C134.629 119.852 141.95 113.086 144.155 104.032C144.347 103.243 145.121 102.216 145.702 102.783C145.962 103.036 145.921 103.457 145.855 103.814C145.206 107.298 143.878 110.654 141.967 113.638C139.161 118.022 135.188 121.511 131.269 124.936ZM73.3822 158.033C67.7338 162.833 63.0306 169.071 61.3819 176.298C60.0152 182.288 60.8127 188.563 62.1459 194.561C63.555 200.9 65.5563 207.107 68.1153 213.076C70.1809 217.893 72.6165 222.58 75.0492 227.262C79.8674 236.533 84.6748 245.784 86.5762 255.99C86.8802 257.622 87.1 259.347 86.5392 260.909C85.9784 262.471 84.399 263.788 82.7635 263.505C83.5541 264.89 85.7499 264.822 86.917 263.735C88.0841 262.648 88.4493 260.961 88.616 259.375C89.3572 252.321 87.3483 245.23 84.4074 238.775C82.611 234.833 80.4692 231.065 78.3267 227.296L78.3266 227.296C76.9617 224.895 75.5966 222.493 74.3204 220.046C70.8967 213.48 68.1139 206.581 66.0244 199.477C63.3516 190.39 61.8868 180.317 65.7401 171.665C68.6934 165.033 74.4198 160.063 80.3605 155.891C87.0096 151.221 94.1544 147.257 101.636 144.088C98.0118 149.923 94.8634 156.053 92.2326 162.398C91.9783 163.011 91.7443 163.766 92.1495 164.292C92.6963 165.001 93.817 164.638 94.6065 164.215C117.012 152.218 139.577 140.116 159.246 124.021C158.899 140.288 153.027 155.866 147.231 171.071C145.53 175.535 142.532 185.948 143.371 185.604C144.211 185.259 144.624 184.33 144.954 183.484C146.4 179.787 147.803 176.073 149.207 172.359L149.207 172.357C155.399 155.974 161.694 138.871 160.022 121.436C139.348 135.305 117.959 148.106 95.9671 159.771L104.362 143.358C104.817 142.468 105.198 141.209 104.393 140.617C103.751 140.144 102.852 140.511 102.148 140.886L92.1651 146.215C85.626 149.705 79.0306 153.233 73.3822 158.033ZM124.892 246.23C128.498 244.669 131.937 242.642 134.788 239.938C137.532 237.336 139.669 234.173 141.783 231.038C148.738 220.724 155.774 210.248 159.727 198.453C161.699 192.571 162.87 186.451 163.864 180.327C166.207 165.884 167.596 151.169 166.052 136.619C165.707 148.236 162.798 159.77 157.591 170.16C156.137 173.063 154.508 175.873 152.879 178.684L152.879 178.684C151.096 181.76 149.313 184.837 147.759 188.033C144.786 194.15 142.644 200.904 143.273 207.676C141.299 202.227 142.273 196.095 144.433 190.718C145.946 186.951 148.004 183.446 150.063 179.94L150.063 179.939C150.944 178.44 151.824 176.94 152.662 175.42C156.758 167.991 159.857 160.012 161.852 151.766C162.788 147.896 163.481 143.972 164.173 140.051C165.024 135.232 165.859 130.167 164.284 125.534C164.018 124.753 165.216 124.146 165.926 124.567C166.635 124.989 166.876 125.884 167.044 126.692C170.478 143.233 169.141 160.398 166.573 177.095C165.257 185.655 163.607 194.217 160.544 202.318C156.697 212.489 150.716 221.694 144.658 230.724C142.08 234.565 139.454 238.424 136.11 241.62C132.422 245.146 127.901 247.794 123.023 249.288C119.697 250.306 116.143 250.791 112.726 250.143C105.144 248.705 99.7223 242.169 95.2092 235.91C90.0318 228.729 85.1512 221.334 80.5841 213.75C73.6357 202.213 67.3047 189.905 65.6272 176.542C65.5429 175.871 66.3067 177.958 67.2139 180.437C67.7854 181.999 68.4137 183.717 68.9228 184.998C76.383 203.771 86.8273 221.297 99.1821 237.28C102.973 242.185 107.495 247.279 113.615 248.267C117.438 248.885 121.338 247.768 124.892 246.23ZM123.875 162.232C125.492 161.974 126.98 163.168 127.987 164.46C131.003 168.327 131.752 173.839 129.878 178.371C129.468 179.365 128.898 180.357 127.969 180.897C126.636 181.673 124.855 181.289 123.662 180.313C122.468 179.337 121.766 177.884 121.276 176.422C120.234 173.32 119.985 169.955 120.559 166.733C120.908 164.772 121.907 162.546 123.875 162.232ZM99.0912 292.346C93.2455 298.986 87.389 305.639 82.8153 313.194C74.882 326.297 71.1299 341.889 72.2337 357.167C72.5704 361.827 73.403 366.607 75.9466 370.525C70.1637 347.186 76.491 321.186 92.3519 303.113C109.022 284.119 124.786 264.329 139.572 243.833C138.966 242.799 137.406 243.749 136.686 244.707C135.132 246.776 133.581 248.849 132.031 250.921L132.031 250.921L132.03 250.922L132.03 250.922L132.03 250.922L132.03 250.922L132.03 250.923L132.029 250.923L132.029 250.923L132.029 250.924L132.029 250.924L132.029 250.924L132.028 250.924L132.028 250.925L132.028 250.925L132.028 250.925L132.028 250.925L132.027 250.926L132.027 250.926L132.027 250.926L132.027 250.927L132.027 250.927L132.026 250.927L132.026 250.927L132.026 250.928L132.026 250.928L132.026 250.928L132.025 250.928L132.025 250.929L132.025 250.929C122.634 263.481 113.239 276.039 102.987 287.893C101.699 289.383 100.396 290.863 99.093 292.343L99.0927 292.344L99.0912 292.346ZM210.069 372.02C205.288 382.644 200.53 393.217 199.799 404.735L205.446 386.156C205.507 393.015 205.573 399.917 206.859 406.654C208.144 413.391 210.731 420.025 215.29 425.149C211.229 416.624 207.983 407.594 207.019 398.2C206.056 388.805 207.501 378.985 212.292 370.847C220.064 357.643 223.107 342.084 223.393 326.765C223.678 311.445 221.344 296.212 219.017 281.068C218.759 279.393 218.479 277.656 217.53 276.252C216.778 277.117 216.832 278.399 216.937 279.54C217.424 284.843 218.083 290.172 218.743 295.509C221.013 313.862 223.294 332.296 218.586 349.996C216.572 357.569 213.315 364.806 210.069 372.02ZM193.57 443.877C187.61 428.994 187.188 412.561 186.845 396.533C186.819 395.313 186.819 394 187.518 392.999C187.648 392.813 187.814 392.633 188.034 392.577C188.686 392.411 189.026 393.324 189.061 393.996C189.254 397.678 189.345 401.386 189.437 405.097V405.097V405.097V405.098V405.098V405.098V405.099V405.099V405.099V405.099V405.1V405.1V405.1V405.1V405.101V405.101V405.101V405.102V405.102V405.102V405.102V405.103V405.103V405.103V405.103V405.104V405.104V405.104V405.105V405.105C189.744 417.561 190.051 430.052 194.195 441.714C194.495 442.557 194.464 443.922 193.57 443.877ZM76.2584 384.325C74.5025 387.203 72.7729 390.628 73.9082 393.803C74.8129 388.293 78.3419 383.647 81.7278 379.19L82.0051 378.825C91.9241 365.758 101.172 351.388 103.462 335.144C103.548 334.532 103.592 333.82 103.15 333.388C102.609 332.86 101.636 333.125 101.168 333.719C100.708 334.303 100.6 335.078 100.496 335.815L100.491 335.854C99.225 344.873 95.4437 353.365 90.894 361.255C88.3058 365.744 85.461 370.075 82.616 374.407C80.4598 377.69 78.3034 380.973 76.2584 384.325ZM162.771 375.776C162.587 398.119 160.204 420.443 155.667 442.321C157.119 440.647 157.727 438.421 158.253 436.268C163.618 414.291 164.741 391.525 165.5 368.915C165.537 367.823 165.517 366.589 164.723 365.839C163.638 365.872 163.177 367.221 163.058 368.3C162.809 370.562 162.792 372.84 162.776 375.116C162.774 375.336 162.773 375.556 162.771 375.776ZM69.1316 321.643C69.1613 322.726 69.1725 323.952 68.3948 324.707C66.5771 311.981 70.2517 298.565 78.3004 288.542C84.4315 280.906 92.6522 275.483 100.89 270.048C108.107 265.287 115.338 260.517 121.188 254.244C121.658 253.74 122.579 254.361 122.572 255.049C122.566 255.737 122.029 256.289 121.523 256.756C114.374 263.358 106.197 268.725 98.0605 274.066L98.0604 274.066L98.0602 274.066L98.0599 274.066L97.4869 274.443C93.4858 277.069 89.4745 279.717 85.8971 282.896C75.0383 292.548 68.7331 307.12 69.1316 321.643ZM76.4674 431.657L76.4561 431.631C73.2464 424.205 72.7962 415.796 74.0554 407.805C75.3146 399.815 78.2065 392.172 81.4835 384.776C82.0016 383.607 82.4828 382.102 81.6066 381.171C80.7101 382.149 80.1274 383.368 79.574 384.574C75.8832 392.618 72.8856 401.089 72.0113 409.896C71.137 418.703 72.5096 427.911 77.0567 435.503C77.6019 434.281 76.9994 432.888 76.4674 431.657ZM81.3536 176.965C82.3786 176.63 83.5379 176.969 84.3885 177.632C85.239 178.295 85.8222 179.243 86.284 180.217C87.6656 183.133 88.0964 186.522 87.3084 189.651C86.8885 191.318 85.9177 193.082 84.2426 193.471C83.0513 193.747 81.7765 193.22 80.91 192.357C80.0435 191.494 79.5299 190.339 79.1649 189.172C78.3064 186.427 78.1776 183.457 78.7952 180.648C79.1315 179.118 79.8651 177.453 81.3536 176.965ZM176.315 191.378C173.738 203.459 168.753 215.021 161.739 225.19C161.19 225.985 160.614 227.021 161.112 227.849C170.014 216.384 176.097 202.746 178.68 188.462C177.308 188.319 176.603 190.029 176.315 191.378ZM97.1164 390.015C95.9614 394.559 94.8006 399.14 94.5812 403.823C94.1792 412.405 96.9694 420.854 100.784 428.552C103.151 433.327 106.293 438.222 111.284 440.092C108.716 438.443 107.465 435.273 107.313 432.225C107.176 429.468 107.801 426.745 108.419 424.047L108.502 423.685C108.539 423.521 108.576 423.357 108.613 423.193C112.545 405.797 113.003 387.83 113.445 370.001C113.504 367.615 116.718 366.95 119.104 366.988C138.246 367.292 157.416 365.795 176.279 362.524C174.26 376.433 175.118 390.754 178.785 404.323C179.023 405.203 179.317 406.147 180.056 406.682C180.794 407.217 182.098 407.005 182.29 406.114C183.897 398.641 186.469 391.375 189.921 384.555C193.905 390.326 196.507 397.044 197.45 403.992C198.291 410.189 197.828 416.48 197.363 422.716C199.277 413.685 200.871 404.001 197.391 395.451C196.741 393.855 195.925 392.333 195.11 390.812L195.109 390.812C194.184 389.085 193.258 387.359 192.577 385.525C191.525 382.696 191.146 379.389 192.254 376.66C192.568 376.092 192.885 375.525 193.205 374.959C192.811 375.491 192.496 376.062 192.254 376.66C187.733 384.837 183.795 393.336 180.479 402.071C178.087 388.85 175.729 374.992 179.825 362.196C179.895 361.979 179.966 361.761 180.038 361.542C180.709 359.49 181.408 357.352 180.838 355.296C176.237 338.689 175.699 320.972 179.284 304.116C179.425 303.456 178.453 303.026 177.869 303.365C177.286 303.704 177.057 304.418 176.887 305.071C172.783 320.806 174.802 337.481 178.163 353.391C178.538 355.165 178.893 357.157 177.904 358.677C176.848 360.3 174.698 360.725 172.781 360.997C153.242 363.768 133.556 365.499 113.834 366.182C114.336 352.464 116.485 338.808 120.222 325.6C122.828 316.39 126.303 307.219 132.335 299.788C138.367 292.356 147.317 286.826 156.888 286.787C166.953 286.745 176.259 292.719 182.772 300.392C184.309 299.211 182.858 296.806 181.384 295.547C175.788 290.767 169.485 286.413 162.255 285.039C152.134 283.116 141.522 287.495 134.11 294.651C126.698 301.806 122.114 311.423 118.983 321.239C112.669 341.034 111.766 361.863 110.861 382.734C110.119 399.856 109.376 417.007 105.642 433.638C102.874 429.025 100.937 423.956 99.4175 418.795C98.1504 414.491 97.1596 410.063 97.1241 405.576C97.0757 399.468 98.786 393.518 100.492 387.582C102.414 380.896 104.33 374.228 103.722 367.375C102.672 368.278 102.278 369.707 101.937 371.049L97.1164 390.015ZM112.329 124.182L104.123 129.77C101.329 131.672 98.534 133.576 95.8431 135.622C91.5842 138.86 87.6017 142.443 83.6247 146.022C83.2718 146.071 83.0038 145.646 83.0663 145.295C83.1288 144.944 83.3994 144.673 83.6573 144.427C91.7903 136.674 100.761 129.801 110.363 123.966C111.044 123.552 112.267 123.388 112.329 124.182ZM118.342 160.949C125.25 157.289 133.48 156.192 141.106 157.916C140.884 156.681 139.441 156.147 138.218 155.865C134.634 155.037 130.955 154.412 127.287 154.699C123.62 154.987 119.932 156.261 117.278 158.808C116.931 159.142 116.591 159.515 116.466 159.98C116.342 160.445 116.503 161.02 116.941 161.221C117.39 161.427 117.905 161.181 118.342 160.949ZM122.474 215.344L122.585 215.218C123.35 214.348 124.285 213.285 125.349 213.67C126.174 213.968 126.457 215.073 126.149 215.894C125.841 216.716 125.122 217.304 124.414 217.822C118.683 222.016 111.575 224.295 104.473 224.215C104.146 224.212 103.786 224.19 103.553 223.961C103.32 223.733 103.376 223.231 103.7 223.188C109.02 222.479 114.199 220.731 118.86 218.07C120.177 217.319 121.47 216.48 122.474 215.344ZM178.048 248.169C176.451 255.874 174.078 263.417 170.975 270.648C170.659 271.384 170.454 272.464 171.184 272.794C174.963 265.025 177.808 256.803 179.639 248.359C179.756 247.818 179.771 247.085 179.251 246.897C178.624 246.67 178.184 247.516 178.048 248.169ZM70.9505 182.24C70.5382 181.014 71.3673 179.74 72.2191 178.767C75.2601 175.292 79.203 172.614 83.5537 171.068C84.2622 170.816 85.0159 170.591 85.7565 170.721C86.497 170.852 87.2084 171.447 87.2203 172.199C87.2374 173.285 85.9706 173.862 84.925 174.156C80.3948 175.43 75.5581 176.83 72.5299 180.433C72.3848 180.605 72.2444 180.782 72.104 180.96C71.7455 181.412 71.387 181.865 70.9505 182.24ZM88.6492 108.069C89.2871 107.689 89.9792 107.266 90.2284 106.567C89.487 106.137 88.5623 106.589 87.8371 107.045C83.4239 109.822 79.299 113.058 75.5503 116.682C75.2501 116.973 74.9415 117.283 74.8174 117.681C74.6933 118.08 74.8239 118.591 75.2078 118.755C79.1795 114.609 83.7146 111.004 88.6492 108.069ZM87.1532 270.865C91.9221 268.364 93.567 262.381 94.0496 257.018C94.6532 250.311 94.1962 243.509 92.7009 236.943C92.6139 236.561 92.5268 236.144 92.6972 235.791C92.8677 235.439 93.4202 235.266 93.6519 235.582C93.718 235.672 93.746 235.784 93.7723 235.892C95.4796 242.933 96.0112 250.257 95.3385 257.47C95.0387 260.685 94.4817 263.939 92.9987 266.807C91.5156 269.676 88.984 272.137 85.8444 272.892C85.2731 272.162 86.3322 271.295 87.1532 270.865ZM77.9355 426.6C79.0443 429.873 80.7853 433.005 83.3981 435.266C84.0251 434.735 83.415 433.751 82.8718 433.134C80.5078 430.45 79.5491 426.825 78.9291 423.302C78.4117 420.362 78.0779 417.39 77.9304 414.408C77.8902 413.595 76.5714 413.475 76.0717 414.118C75.5721 414.76 75.6689 415.668 75.7904 416.473C76.306 419.89 76.8266 423.327 77.9355 426.6ZM105.916 182.884C106.614 182.538 107.153 183.581 107.234 184.356C108.032 192.038 107.558 199.85 105.836 207.379C105.668 208.112 106.878 208.289 107.521 207.898C107.55 207.88 107.58 207.861 107.61 207.843L107.721 207.773C108.323 207.397 109.019 206.961 109.562 207.364C110.271 207.89 109.64 209.01 108.943 209.552C107.798 210.443 106.226 211.131 104.93 210.481C103.949 209.989 103.437 208.846 103.382 207.75C103.33 206.725 103.606 205.718 103.877 204.726L103.934 204.521C105.847 197.498 106.522 190.139 105.916 182.884ZM152.66 249.632C152.255 250.254 151.887 251.172 152.457 251.648L164.057 235.936C164.226 235.707 164.404 235.436 164.335 235.16C164.248 234.81 163.786 234.671 163.447 234.797C163.108 234.922 162.869 235.222 162.649 235.509C159.141 240.087 155.808 244.799 152.66 249.632ZM161.208 250.115C161.853 248.872 162.514 247.599 162.619 246.208C161.842 245.876 161.13 246.776 160.767 247.539C158.841 251.588 157.164 255.756 155.749 260.011C155.422 260.994 155.128 262.142 155.697 263.008C156.236 262.657 156.448 261.986 156.632 261.37C157.768 257.575 159.258 253.886 161.077 250.367C161.121 250.283 161.164 250.199 161.208 250.115ZM180.451 291.019C180.414 291.308 180.366 291.618 180.166 291.831C179.965 292.043 179.555 292.074 179.415 291.818C179.64 287.802 180.034 283.795 180.593 279.811C180.717 278.932 181.026 277.859 181.9 277.701C182.113 278.223 182.043 278.811 181.97 279.369L180.451 291.019ZM86.848 443.149C87.1021 443.412 87.5962 443.649 87.7623 443.323C87.4924 442.131 86.692 441.14 85.9153 440.196L81.1351 434.388C80.9764 434.195 80.7974 433.99 80.5521 433.944C80.1229 433.863 79.7603 434.35 79.7925 434.786C79.8246 435.221 80.1136 435.589 80.3918 435.926C82.4495 438.416 84.6038 440.826 86.848 443.149ZM95.572 267.017C97.4527 264.768 98.2355 261.825 98.9669 258.986L101.18 250.392C101.244 250.143 101.327 249.869 101.549 249.739C101.877 249.547 102.32 249.816 102.449 250.174C102.578 250.532 102.489 250.927 102.398 251.297C101.413 255.288 100.313 259.251 99.1005 263.179C98.4092 265.418 97.5255 267.845 95.4912 269.008C95.0757 268.983 94.836 268.475 94.9216 268.067C94.9996 267.696 95.2537 267.395 95.5001 267.103L95.5004 267.103L95.5338 267.063L95.572 267.017ZM107.696 98.1955C103.716 100.224 99.8828 102.539 96.2358 105.118C95.634 105.544 94.9724 106.103 95.0086 106.839C95.5618 106.996 96.1164 106.639 96.5841 106.304C101.364 102.887 106.512 99.9851 111.91 97.6658C112.189 97.5459 112.136 97.0884 111.882 96.9231C111.627 96.7578 111.293 96.8014 110.997 96.8685C109.837 97.1313 108.755 97.6554 107.696 98.1955ZM66.8381 159.27L71.0463 152.924C71.4493 152.317 71.874 151.688 72.5036 151.32C72.7705 151.165 73.162 151.085 73.3489 151.331C73.5369 151.578 73.3572 151.928 73.1786 152.182L66.9365 161.063C66.5824 161.005 66.3734 160.6 66.4044 160.242C66.4355 159.885 66.6398 159.569 66.8381 159.27ZM192.926 328.214C191.564 332.634 189.72 336.888 187.88 341.132L183.361 351.554C190.229 342.663 193.79 331.662 196.154 320.678C197.069 316.43 197.824 312.147 198.578 307.865C199.775 301.075 200.971 294.288 202.802 287.646C203.318 285.773 203.884 283.914 204.45 282.056C205.409 278.905 206.369 275.756 207.084 272.543C208.339 266.904 208.831 261.126 209.24 255.365C209.755 248.114 210.146 240.855 210.41 233.592C210.73 224.811 210.831 215.79 207.839 207.529C207.572 206.791 207.051 205.918 206.275 206.034C205.254 206.186 205.313 207.672 205.619 208.658C208.231 217.086 208.03 226.095 207.735 234.913C207.566 239.962 207.374 245.01 207.159 250.057C206.827 257.841 206.435 265.67 204.707 273.267C203.976 276.484 203.009 279.639 202.043 282.794C201.206 285.524 200.37 288.255 199.685 291.026C198.33 296.512 197.578 302.129 196.826 307.743C195.901 314.655 194.976 321.562 192.926 328.214Z" fill="#00160A"/>
<path fill-rule="evenodd" clip-rule="evenodd" d="M315.319 56.9477C313.857 57.5293 312.242 58.0958 310.744 57.6095C309.012 57.047 307.965 55.1376 307.995 53.3217C308.024 51.5058 308.941 49.808 310.103 48.4114C312.832 45.1331 317.079 43.167 321.353 43.2035C322.238 43.211 322.593 42.0821 322.684 41.2042C322.891 39.231 323.097 37.2577 323.304 35.2845C323.333 35.0084 323.358 34.7126 323.224 34.4688C322.978 34.0175 322.353 33.9824 321.838 34.0069C316.631 34.2546 311.43 34.6455 306.245 35.1788C304.561 35.352 302.504 35.8507 302.108 37.4915C301.755 38.955 301.402 40.4184 301.049 41.8819C300.485 44.2201 299.864 46.6686 298.227 48.4334C295.817 51.0324 291.34 51.3577 288.571 49.1351C285.802 46.9124 285.162 42.4801 287.192 39.5749C289.221 36.6698 293.61 35.734 296.658 37.5565C297.779 38.2266 298.789 39.233 300.089 39.3579C300.776 36.6432 301.462 33.9285 302.149 31.2138C302.906 28.2206 304.367 24.606 307.456 24.4064C312.927 24.0529 318.398 23.6994 323.868 23.346C324.382 23.3128 324.928 23.2863 325.38 23.5336C326.181 23.9727 326.333 25.0442 326.325 25.9557C326.273 31.596 323.718 37.0735 324.227 42.6919C324.406 44.664 324.962 46.6427 324.635 48.5952C323.915 52.9006 319.383 55.3309 315.319 56.9477ZM324.471 26.7308C324.484 26.4808 324.491 26.213 324.358 26.0002C324.124 25.6277 323.597 25.6049 323.156 25.6247C319.601 25.7848 316.046 25.9448 312.491 26.1048C310.974 26.1731 309.426 26.2476 308.01 26.7884C305.438 27.7703 303.581 30.3628 303.488 33.0996C303.483 33.2344 303.483 33.3725 303.528 33.4997C303.711 34.0073 304.42 34.019 304.955 33.9348C307.401 33.5499 309.847 33.1527 312.311 32.8989C315.029 32.6188 317.767 32.5137 320.5 32.5846C321.683 32.6153 323.059 32.5954 323.783 31.6683C324.242 31.0813 324.296 30.2867 324.333 29.5437C324.379 28.6061 324.425 27.6684 324.471 26.7308ZM294.835 49.076C297.367 48.3527 298.63 45.5877 299.24 43.0587C299.33 42.6854 299.412 42.2866 299.282 41.9235C299.156 41.5735 298.854 41.316 298.551 41.0945C296.653 39.7067 294.204 39.0764 291.871 39.3749C290.855 39.5049 289.831 39.8218 289.07 40.4942C287.244 42.1083 287.652 45.2056 289.239 47.0703C290.591 48.6581 292.825 49.6498 294.835 49.076Z" fill="#FFB61D"/>
<path fill-rule="evenodd" clip-rule="evenodd" d="M29.8933 16.5067C28.0495 12.1885 34.0326 14.6453 35.0934 15.6546C36.2905 16.7937 39.7813 27.7501 41.4096 22.6244C44.4944 12.9138 34.3446 12.5978 28.819 9.24078C26.7795 8.0017 25.7935 5.50215 23.9022 4.04942C23.5708 3.7948 22.9172 4.19279 22.7521 4.58057C19.3133 12.6604 30.6365 19.7108 30.3972 24.994C30.3085 26.9516 27.1711 25.7474 24.9227 27.2263C22.1492 29.0505 19.9016 32.1673 23.1172 35.0411C28.9463 40.2505 36.4803 38.8993 33.9645 27.7704C32.1687 19.8268 31.8064 20.9871 29.8933 16.5067Z" fill="#FFB61D"/>
</svg>
