<svg width="432" height="515" viewBox="0 0 432 515" fill="none" xmlns="http://www.w3.org/2000/svg">
<path fill-rule="evenodd" clip-rule="evenodd" d="M0 453.283C109.371 505.794 301.69 501.018 375.77 434.883C430.707 385.837 410.047 349.441 389.497 313.24C375.833 289.169 362.218 265.184 370.91 237.625C372.849 231.477 375.053 225.053 377.313 218.463C400.422 151.095 429.45 66.4707 242.215 83.1252C147.1 91.5857 59.4576 140.61 0 200.533V453.283Z" fill="#8EFFE5"/>
<path fill-rule="evenodd" clip-rule="evenodd" d="M48.3023 62.146C47.4687 62.4622 46.2849 62.6474 45.9023 61.8249C45.6569 61.2972 45.9543 60.6639 46.3663 60.2622C47.1099 59.5372 48.1614 59.2727 49.1376 58.9383C50.1138 58.604 51.1382 58.0978 51.564 57.142C51.9898 56.1863 51.3685 54.7611 50.3399 54.8335C46.9862 55.5393 43.6325 56.2451 40.2788 56.9509C44.0036 65.7141 47.7284 74.4773 51.4533 83.2404C51.9434 84.3937 52.4373 85.5591 52.663 86.7935C53.2604 90.0616 51.7332 93.6163 48.9773 95.3721C46.2215 97.1279 42.411 96.9739 39.7814 95.0004C39.2335 94.5893 38.7289 94.1 38.3887 93.4995C37.7608 92.3914 37.7563 91.0263 37.9707 89.7694C38.6675 85.6832 41.6358 82.0932 45.465 80.7051C46.7872 80.2258 46.5872 78.2683 46.1114 76.9171C43.6243 69.8536 40.542 63.0055 36.9097 56.4734C36.4951 55.7278 37.5254 55.0395 38.336 54.8243C42.2713 53.7791 46.2065 52.734 50.1418 51.6889C51.0534 51.4468 52.0967 51.2248 52.8817 51.7622C53.3885 52.1092 53.6695 52.7027 53.9125 53.2735C54.7372 55.2102 55.3969 57.2193 55.8817 59.2705C53.3553 60.229 50.8288 61.1875 48.3023 62.146Z" fill="#FFB61D"/>
<path fill-rule="evenodd" clip-rule="evenodd" d="M265.827 239.389C271.981 242.378 278.135 245.366 284.289 248.354C293.984 253.062 303.847 257.884 311.664 265.287C319.482 272.69 325.073 283.222 323.902 293.904C322.524 306.461 312.565 316.135 303.214 324.664C291.025 335.782 278.835 346.9 266.645 358.018C261.303 362.891 255.453 369.829 258.33 376.451C265.802 393.648 272.57 413.211 265.776 430.685C263.857 435.619 259.886 440.713 254.581 440.47C250.634 440.289 247.504 437.197 244.965 434.181C234.874 422.189 227.386 408.034 223.161 392.962C217.751 373.662 218.411 351.044 231.577 335.896C241.807 324.126 259.436 316.21 260.525 300.677C240.593 283.813 211.76 278.066 186.852 285.993C161.943 293.919 141.791 315.254 135.359 340.507C131.857 354.26 139.697 368.417 149.341 378.857C158.984 389.297 170.813 397.953 178.233 410.063C193.156 434.418 186.641 465.605 179.659 493.279C177.236 502.882 162.614 504.485 155.334 497.743C148.055 491.002 146.802 479.989 147.573 470.117C148.345 460.245 150.658 450.265 148.718 440.554C143.71 415.489 114.263 404.047 99.834 382.918C88.8982 366.905 87.3917 345.954 91.4407 327.011C95.4898 308.067 104.545 290.615 113.503 273.425C96.8324 247.996 89.8338 216.433 94.2006 186.372C96.4039 171.205 76.368 159.535 78.4544 144.351C80.1197 132.233 94.3882 126.761 106.449 124.481C129.404 120.142 152.879 118.538 176.214 119.714C181.431 119.977 183.727 112.424 181.114 107.917C178.501 103.41 173.399 101.089 169.173 98.0286C160.66 91.8625 155.312 82.1407 152.362 72.0743C148.578 59.1558 148.57 44.4876 155.6 32.9962C157.357 30.1243 160.377 25.8679 164.972 29.9927C166.351 22.793 180.989 15.8732 190.348 19.7383C195.957 22.0549 201.934 17.3041 205.499 12.4062C209.064 7.50831 212.512 1.59406 218.436 0.265028C229.043 -2.11472 235.836 12.0282 234.614 22.793C233.393 33.5578 228.641 44.9303 233.306 54.7159C235.08 58.4365 238.152 61.6581 238.741 65.7351C239.252 69.2719 238.336 67.8928 236.345 76.0356C234.354 84.1785 229.556 86.7937 227.578 91.2988C224.534 98.2325 224.992 104.323 218.63 110.46C217.56 111.492 219.74 113.859 218.97 115.612C234.636 115.836 246.538 128.853 258.663 138.74C273.742 151.035 292.19 159.636 311.603 161.305C331.016 162.973 351.33 157.298 365.825 144.323C371.499 139.243 385.034 145.879 386.022 138.343C386.211 136.39 385.692 135.55 383.837 135.069C382.876 134.821 380.605 135.338 379.9 134.434C377.834 131.784 389.87 127.218 389.362 130.855C389.231 131.787 388.684 132.475 388.753 133.079C388.956 134.834 389.957 135.375 391.505 135.685C394.767 135.888 399.44 133.659 401.39 130.855C402.697 128.977 402.188 128.479 401.163 128.396C399.487 128.26 396.433 129.235 397.684 127.103C399.223 124.481 403.187 121.995 406.959 124.277C407.773 124.77 407.487 125.727 407.069 126.666C406.303 128.39 405.095 130.057 409.425 128.702C416.117 126.607 416.5 127 418.229 127.511C419.958 128.023 422.497 131.062 424.121 133.9C427.465 139.741 430.895 145.866 431.208 152.583C431.521 159.3 427.632 166.727 421.02 168.07C420.961 170.025 421.92 171.866 423.376 173.162C424.961 174.573 429.038 173.713 428.353 174.974C426.127 179.071 420.708 180.122 416.442 178.689C415.271 178.295 417.973 176.278 418.229 174.881C418.639 172.643 418.173 170.233 416.805 168.405C412.946 170.032 409.088 171.659 405.229 173.287C406.349 174.714 405.839 176.407 406.959 177.834C408.016 179.181 410.73 178.839 411.185 180.752C411.68 182.83 407.672 183.703 405.603 183.897C403.334 184.111 399.803 184.343 398.746 182.83C397.544 181.111 401.309 180.561 401.483 178.762C401.673 176.798 400.952 174.7 399.223 173.75C395.908 171.93 391.153 175.281 391.772 179.001C393.33 188.372 389.433 198.448 381.967 204.354C374.501 210.261 363.767 211.757 354.961 208.12C346.998 204.831 338.178 209.062 329.938 211.583C311.258 217.3 289.942 213.654 274.245 202.057C273.339 215.021 270.847 229.063 262.53 238.621C263.879 239.389 263.186 239.389 265.827 239.389Z" fill="white"/>
<path fill-rule="evenodd" clip-rule="evenodd" d="M241.824 287.66C239.78 286.744 237.733 285.827 235.674 284.933C220.596 278.393 202.511 273.689 188.285 281.908C186.112 268.078 200.992 257.517 214.685 254.388C218.44 253.53 222.315 252.922 226.191 252.313C236.445 250.703 246.702 249.092 254.752 242.858C266.704 233.602 269.891 217.104 270.943 202.057C286.641 213.654 307.956 217.3 326.636 211.583C328.062 211.147 329.505 210.659 330.959 210.168C337.903 207.823 345.074 205.4 351.659 208.12C360.465 211.757 371.199 210.261 378.665 204.354C386.131 198.448 390.028 188.372 388.47 179.001C387.852 175.281 392.606 171.93 395.921 173.75C397.65 174.7 398.371 176.798 398.181 178.762C398.103 179.567 397.306 180.122 396.557 180.644C395.632 181.288 394.78 181.881 395.444 182.83C396.501 184.343 400.032 184.111 402.301 183.897C404.37 183.703 408.378 182.83 407.883 180.752C407.622 179.656 406.62 179.3 405.612 178.942C404.862 178.676 404.109 178.409 403.657 177.834C403.097 177.12 402.945 176.34 402.792 175.56C402.64 174.78 402.487 174 401.927 173.287L413.503 168.405C414.871 170.233 415.337 172.643 414.927 174.881C414.817 175.482 414.255 176.197 413.743 176.849C413.064 177.713 412.473 178.464 413.14 178.689C417.406 180.122 422.826 179.071 425.051 174.974C425.399 174.333 424.516 174.24 423.355 174.118C422.234 174 420.853 173.855 420.074 173.162C418.618 171.866 417.659 170.025 417.718 168.07C424.33 166.727 428.219 159.3 427.906 152.583C427.594 145.866 424.163 139.741 420.82 133.9C419.195 131.062 416.656 128.023 414.927 127.511C414.82 127.48 414.718 127.448 414.619 127.418C413.126 126.96 412.399 126.737 406.123 128.702C402.236 129.918 402.812 128.7 403.525 127.191C403.606 127.019 403.689 126.843 403.767 126.666C404.185 125.727 404.471 124.77 403.657 124.277C399.886 121.995 395.921 124.481 394.382 127.103C393.464 128.668 394.866 128.559 396.34 128.444C396.873 128.402 397.416 128.36 397.861 128.396C398.886 128.479 399.395 128.977 398.088 130.855C396.138 133.659 391.465 135.888 388.203 135.685C386.655 135.375 385.654 134.834 385.452 133.079C385.415 132.758 385.552 132.413 385.708 132.021C385.846 131.675 385.999 131.292 386.06 130.855C386.568 127.218 374.532 131.784 376.599 134.434C377.058 135.023 378.182 135.009 379.176 134.996C379.707 134.989 380.201 134.983 380.535 135.069C382.39 135.55 382.91 136.39 382.72 138.343C382.181 142.458 377.9 142.347 373.201 142.226C369.294 142.125 365.098 142.017 362.523 144.323C348.028 157.298 327.714 162.973 308.301 161.305C288.889 159.636 270.441 151.035 255.361 138.74C253.28 137.043 251.205 135.254 249.117 133.453C239.039 124.761 228.645 115.798 215.668 115.612C216.049 114.745 215.708 113.727 215.396 112.796C215.077 111.844 214.788 110.981 215.329 110.46C218.679 107.228 220.39 100.931 221.873 95.4785C223.205 90.5782 224.351 86.3593 226.336 85.6582C230.307 84.2554 231.472 80.7544 232.816 76.7158C232.891 76.4907 232.967 76.2638 233.043 76.0356C233.502 74.6687 233.911 73.5648 234.259 72.6243C235.325 69.7479 235.824 68.4004 235.439 65.7351C235.055 63.0767 233.615 60.7821 232.168 58.4757C231.396 57.2448 230.622 56.0106 230.004 54.7159C226.611 47.5968 228.201 39.638 229.789 31.6842C230.385 28.7049 230.98 25.7264 231.312 22.793C232.534 12.0282 225.741 -2.11472 215.134 0.265028C209.965 1.42471 206.681 6.07554 203.56 10.496C203.104 11.1415 202.651 11.7821 202.197 12.4062C198.632 17.3041 192.655 22.0549 187.046 19.7383C177.687 15.8732 163.049 22.793 161.67 29.9927C157.075 25.8679 154.055 30.1243 152.298 32.9962C145.269 44.4876 145.276 59.1558 149.061 72.0743C152.01 82.1407 157.359 91.8625 165.872 98.0286C166.954 98.8125 168.094 99.5478 169.234 100.284C172.547 102.421 175.869 104.564 177.812 107.917C180.425 112.424 178.13 119.977 172.912 119.714C149.577 118.538 126.102 120.142 103.147 124.481C91.0864 126.761 76.8178 132.233 75.1526 144.351C74.1116 151.927 78.5774 158.628 83.0405 165.325C87.523 172.05 92.0028 178.772 90.8988 186.372C86.532 216.433 93.5306 247.996 110.201 273.425C101.243 290.615 92.188 308.067 88.1389 327.011C84.0899 345.954 85.5963 366.905 96.5321 382.918C102.231 391.263 110.272 398.096 118.225 404.855C130.409 415.21 142.386 425.388 145.416 440.554C146.84 447.683 145.972 454.957 145.105 462.226C144.791 464.859 144.476 467.492 144.271 470.117C143.5 479.989 144.753 491.002 152.033 497.743C156.189 501.593 162.739 502.722 168.046 501.194C168 502.006 167.953 502.761 167.909 503.472C167.668 507.344 167.509 509.884 168.19 512.894C168.368 513.678 168.656 514.571 169.41 514.857C170.911 515.425 171.912 513.135 171.81 511.58C171.426 505.692 170.69 502.368 169.982 500.492C173.069 499.119 175.491 496.709 176.357 493.279C183.34 465.605 189.854 434.418 174.932 410.063C170.002 402.017 163.126 395.496 156.237 388.964C152.758 385.664 149.275 382.361 146.039 378.857C136.395 368.417 128.555 354.26 132.058 340.507C138.489 315.254 158.641 293.919 183.55 285.993C208.458 278.066 237.291 283.813 257.223 300.677C256.481 311.257 248.066 318.303 239.542 325.44C235.552 328.782 231.537 332.143 228.275 335.896C215.109 351.044 214.449 373.662 219.859 392.962C224.084 408.034 231.572 422.189 241.663 434.181C244.202 437.197 247.332 440.289 251.28 440.47C256.584 440.713 260.556 435.619 262.474 430.685C269.268 413.211 262.5 393.648 255.028 376.451C252.151 369.829 258.001 362.891 263.343 358.018L299.913 324.664C309.264 316.135 319.222 306.461 320.6 293.904C321.772 283.222 316.18 272.69 308.362 265.287C300.545 257.884 290.683 253.062 280.987 248.354L262.525 239.389C268.61 247.183 277.796 251.559 286.841 255.866C288.588 256.699 290.331 257.528 292.044 258.38C302.626 263.638 313.49 271.312 315.913 282.845C318.89 297.013 308.074 310.017 298.047 320.491C285.349 333.753 272.541 347.112 257.457 357.603C252.324 361.173 246.633 364.494 240.378 364.718C234.123 364.941 227.318 361.035 226.336 354.875C225.449 349.315 229.294 344.219 232.909 339.891L259.645 307.891C263.708 303.027 269.06 301.761 275.428 300.256C277.668 299.726 280.034 299.167 282.513 298.41C267.511 299.173 254.738 293.448 241.824 287.66ZM133.621 201.654C134.7 211.34 137.695 221.039 143.768 228.678C149.841 236.317 159.303 241.635 169.074 241.213C172.346 241.072 173.395 236.221 171.452 233.594C169.767 231.315 166.98 230.278 164.278 229.272C163.865 229.119 163.454 228.966 163.049 228.809C159.996 227.628 156.74 225.652 156.189 222.435C164.805 229.114 177.667 229.734 186.889 223.914C190.098 233.094 200.746 238.605 210.382 237.089C220.019 235.574 228.073 227.899 231.27 218.715C231.331 218.54 231.391 218.363 231.452 218.185C231.937 216.755 232.436 215.286 233.54 214.274C234.567 213.331 235.969 212.93 237.316 212.559L263.664 205.299C264.318 205.119 265.06 204.949 265.641 205.3C266.259 205.674 266.43 206.478 266.521 207.194C268.344 221.597 260.229 236.725 247.198 243.218C240.211 246.699 232.227 247.837 224.311 248.965C213.983 250.437 203.771 251.892 196.044 258.514C191.838 262.118 188.921 266.852 185.998 271.596C184.601 273.862 183.204 276.13 181.664 278.278C172.219 291.452 154.874 300.372 139.469 295.225C130.627 292.27 123.754 285.279 118.105 277.885C101.099 255.628 92.1232 227.409 93.1572 199.455C93.3447 194.383 93.8675 189.248 95.7082 184.516C107.382 198.034 120.881 209.986 135.726 219.949C135.208 217.266 133.342 215.064 131.485 213.053C126.172 207.3 120.307 201.912 114.45 196.53C100.828 184.015 87.2402 171.531 80.6976 154.559C79.2594 150.828 78.1956 146.755 79.0816 142.857C81.0912 134.017 91.5189 130.336 100.436 128.542C121.853 124.231 143.71 122.096 165.558 122.18C166.719 135.665 177.98 147.726 191.446 149.501C204.912 151.277 219.104 142.297 222.885 129.297C222.997 128.912 223.102 128.521 223.207 128.129C223.677 126.382 224.152 124.617 225.275 123.219C226.65 121.507 229.447 120.665 231.052 122.165C242.949 133.286 255.432 143.977 269.659 151.931C283.885 159.884 300.049 165.013 316.345 164.294C288.508 174.413 260.054 182.849 231.192 189.538C228.985 190.049 226.252 190.385 224.833 188.624C219.806 182.385 211.609 178.824 203.599 179.401C195.59 179.978 187.992 184.677 183.918 191.572C182.443 194.068 178.762 193.755 175.963 192.974C170.139 191.35 164.145 188.852 160.704 183.897C160.123 183.061 159.62 182.161 159.117 181.262C158.134 179.504 157.154 177.752 155.602 176.496C153.407 174.72 150.533 174.287 147.686 173.858C146.894 173.739 146.105 173.62 145.333 173.473C136.544 171.796 128.761 165.568 125.22 157.38C133.505 151.852 144.694 154.475 153.841 158.429C155.282 159.052 156.726 159.706 158.176 160.363C165.931 163.875 173.844 167.458 182.21 166.693C189.322 166.042 195.53 162.353 201.765 158.649C207.277 155.375 212.809 152.088 219.006 150.877C234.904 147.769 250.51 159.565 257.953 173.904C258.01 174.013 258.067 174.124 258.124 174.234C259.342 176.588 260.659 179.134 263.1 180.122C260.609 166.166 250.089 153.925 236.632 149.325C223.176 144.725 207.329 147.953 196.764 157.446C190.209 163.336 180.247 163.752 171.691 161.587C166.872 160.368 162.279 158.459 157.683 156.548C154.119 155.066 150.553 153.584 146.879 152.422C138.465 149.761 128.747 148.974 121.258 153.63C119.01 148.694 116.002 144.102 112.372 140.064C115.97 160.635 134.8 177.549 155.708 178.988L144.106 183.38C141.395 184.406 138.585 185.497 136.596 187.599C133.19 191.199 133.073 196.737 133.621 201.654ZM127.897 345.544C126.77 351.206 126.151 357.34 128.693 362.527C130.063 365.323 132.25 367.619 134.401 369.878L134.549 370.033C147.487 383.621 159.64 397.951 170.928 412.929C165.916 417.726 160.337 421.935 154.343 425.439C152.673 426.415 150.87 427.363 148.934 427.329C146.049 427.277 143.705 425.104 141.676 423.061C127.501 408.791 113.693 394.161 100.269 379.189C96.0003 374.428 91.6603 369.444 89.7205 363.36C87.2548 355.627 89.0005 347.261 90.7606 339.339C95.6144 317.492 100.721 295.05 113.378 276.568C120.488 289.29 133.656 298.472 148.088 300.771C138.081 313.921 131.121 329.357 127.897 345.544ZM218.068 101.99C215.951 106.401 212.38 110.298 207.748 111.913C201.573 114.068 194.782 111.912 188.736 109.42C185.595 108.126 182.421 106.689 179.988 104.323C177.922 102.315 176.507 99.7478 175.197 97.1861C171.116 89.2091 167.744 80.8724 165.132 72.3052C162.972 65.2207 161.86 56.2559 167.608 51.5638C174.174 56.5851 183.005 57.8448 191.227 56.8921C198.537 56.0451 205.54 53.624 212.505 51.2158C213.374 50.9153 214.243 50.615 215.111 50.3181C216.103 49.9789 217.277 49.6656 218.133 50.269C218.788 50.7306 219.019 51.5774 219.197 52.3568C221.842 63.9492 222.612 75.964 221.47 87.7976C221 92.6646 220.185 97.5792 218.068 101.99ZM244.45 433.16C232.679 417.525 224.794 399.008 221.69 379.71C220.357 371.424 219.925 362.74 222.697 354.815C225.343 365.195 237.879 371.823 247.989 368.188C250.627 373.604 253.026 379.136 255.176 384.763C260.824 399.545 264.669 416.368 258.413 430.906C256.91 434.401 253.939 438.122 250.164 437.564C247.717 437.202 245.934 435.132 244.45 433.16ZM166.08 29.4554C169.055 24.1447 175.602 21.4467 181.685 21.9571C183.105 22.0762 184.519 22.2558 185.904 22.4319C190.294 22.9896 194.4 23.5113 197.501 21.9571C202.221 19.5909 204.194 16.3014 206.201 12.9533C207.542 10.7182 208.898 8.457 211.097 6.42676C212.489 5.14235 214.04 3.90975 215.893 3.50374C219.682 2.67341 223.319 5.54809 225.477 8.76018C230.108 15.654 230.719 25.037 227.021 32.4694C222.949 40.6545 214.553 45.7764 206.153 49.4396C200.106 52.0769 193.706 54.2162 187.106 54.3522C180.506 54.4882 173.638 52.4055 169.087 47.6407C164.536 42.876 162.862 35.1984 166.08 29.4554ZM147.47 460.209C147.188 458.118 146.965 455.782 148.238 454.096C153.457 454.564 158.843 452.68 162.623 449.064C161.473 446.7 157.915 446.86 155.667 448.232C154.804 448.759 154.012 449.406 153.222 450.051C151.953 451.086 150.691 452.117 149.153 452.637C147.666 451.171 147.933 448.584 149.169 446.903C150.406 445.222 152.349 444.23 154.22 443.298L165.999 437.428C163.736 435.196 159.963 435.167 157.075 436.502C154.187 437.838 151.977 440.261 149.85 442.622C147.489 438.513 149.174 432.617 153.353 430.363L168.613 422.134C169.798 421.495 171.055 420.838 172.403 420.878C175.32 420.964 177.081 424.111 177.879 426.909C180.188 435.001 179.483 443.602 178.76 451.984C177.697 464.31 176.616 476.73 173.146 488.609C171.95 492.703 170.063 497.162 166.091 498.75C161.783 500.471 156.714 497.858 154.137 494.01C151.561 490.163 150.875 485.4 150.256 480.816L147.47 460.209ZM350.912 180.752C352.564 180.55 353.995 178.648 353.19 177.197L347.517 166.973C346.769 165.626 346.005 164.222 345.905 162.686C345.806 161.15 346.576 159.442 348.045 158.967C350.148 158.288 352.082 160.314 353.3 162.153C355.866 166.028 358.102 170.119 359.979 174.368C362.206 171.411 359.773 167.328 357.551 164.368C355.328 161.408 353.383 156.87 356.163 154.422C358.909 152.004 363.272 154.482 365.375 157.472C366.48 159.042 367.388 160.785 368.293 162.52C370.046 165.883 371.786 169.22 374.918 171.237C376.272 170.413 375.598 168.348 374.778 166.996L364.266 149.658C363.326 148.107 364.879 146.005 366.678 145.743C368.477 145.481 370.213 146.44 371.716 147.459C378.945 152.363 384.701 159.869 386.06 168.477C387.418 177.085 383.73 186.648 376.149 190.993C373.857 192.307 371.303 193.126 368.707 193.629C352.905 196.69 335.61 186.61 330.543 171.385C329.768 169.055 329.581 165.872 331.781 164.768C333.459 163.927 335.485 164.927 336.882 166.177C338.901 167.984 340.343 170.296 341.786 172.609C343.176 174.837 344.567 177.067 346.474 178.847C347.689 179.981 349.26 180.953 350.912 180.752ZM186.061 197.858C188.002 197.918 190.014 197.98 191.628 199.021C193.408 200.169 194.183 203.077 192.497 204.358C191.859 204.843 191.031 204.984 190.239 205.111C182.874 206.288 174.472 207.203 168.746 202.439C167.459 203.025 167.083 204.789 167.608 206.098C168.134 207.408 169.303 208.339 170.473 209.132C175.669 212.652 181.89 214.652 188.171 214.821C184.057 218.371 178.036 219.579 172.864 217.892C170.834 217.229 167.978 216.474 167.08 218.405C171.063 222.199 177.142 222.49 182.652 222.562C172.809 227.235 159.895 224.191 153.197 215.619C152.72 215.009 151.645 215.321 151.266 215.996C150.887 216.671 150.99 217.501 151.104 218.266C151.684 222.161 152.479 226.443 155.582 228.882C157.224 230.173 159.262 230.735 161.301 231.298C162.114 231.522 162.928 231.747 163.717 232.017C166.484 232.967 169.343 235.052 169.369 237.967C160.457 238.732 151.734 233.7 146.338 226.592C140.943 219.483 138.465 210.571 137.322 201.732C137.027 199.447 136.819 197.081 137.485 194.875C138.812 190.483 143.166 187.827 147.18 185.58C150.091 183.95 154.106 182.449 156.415 184.852C163.939 192.682 174.591 197.444 185.464 197.838C185.662 197.846 185.861 197.852 186.061 197.858ZM205.175 213.647L319.222 182.189C324.188 180.819 330.066 179.621 334.041 182.89C288.886 196.794 243.153 208.833 196.998 218.966C194.486 219.518 190.904 219.407 190.466 216.881C191.983 216.937 191.977 215.242 191.97 213.45C191.964 211.686 191.958 209.827 193.403 209.451L326.307 174.865C327.111 174.655 328.13 174.516 328.623 175.182C329.425 176.264 327.784 177.473 326.484 177.834L199.729 212.946C200.879 214.52 203.291 214.167 205.175 213.647ZM333.76 204.582C325.533 210.076 315.087 211.518 305.252 210.356C295.416 209.194 286.04 205.627 276.926 201.765L331.49 186.526C333.403 185.991 335.765 185.571 337.114 187.024C348.186 198.943 368.333 201.071 381.666 191.728C380.112 199.145 373.379 205.18 365.811 205.937C361.501 206.369 357.256 205.254 353.033 204.145C351.912 203.851 350.794 203.557 349.676 203.292C344.343 202.031 338.314 201.542 333.76 204.582ZM182.972 113.3C183.751 112.189 185.429 111.576 186.509 112.4C192.841 117.236 201.643 118.664 209.188 116.079C211.595 115.254 214.335 116.962 215.329 119.298C216.323 121.634 215.921 124.34 215.048 126.723C212.389 133.98 205.232 139.378 197.501 139.959C189.769 140.54 181.881 136.272 178.159 129.494C177.011 127.402 176.628 124.123 178.843 123.221C181.053 122.321 181.686 119.549 181.925 117.182L181.933 117.111C182.066 115.783 182.207 114.392 182.972 113.3ZM393.83 171.39C392.94 171.63 391.998 171.866 391.106 171.628C390.215 171.391 389.429 170.498 389.653 169.606C397.628 168.344 405.327 165.375 412.076 160.957C414.704 159.236 417.495 156.237 416.168 153.396C415.288 151.512 412.927 150.787 410.844 150.872C407.826 150.995 405.014 152.343 402.301 153.665L387.666 160.798C386.986 159.996 387.269 158.704 387.988 157.936C388.682 157.196 389.665 156.816 390.616 156.449L390.721 156.408C397.365 153.839 403.554 150.108 408.923 145.439C410.495 144.071 409.678 141.253 407.883 140.193C406.088 139.132 403.832 139.341 401.78 139.723C395.828 140.83 390.1 143.119 385.029 146.414C382.532 148.037 378.988 149.833 376.946 147.67C382.458 142.104 390.013 139.133 397.332 136.313L411.496 130.855C412.481 130.476 413.546 130.091 414.568 130.352C415.96 130.707 416.776 132.109 417.406 133.395C420.984 140.694 423.617 148.452 425.222 156.416C425.455 157.572 425.648 158.848 425.051 159.866C424.509 160.788 423.454 161.26 422.463 161.669C413.139 165.512 403.569 168.761 393.83 171.39ZM326.845 171.877C326.314 172.439 325.523 172.659 324.774 172.854L194.706 206.787C196.725 201.927 202.66 200.265 207.818 199.143C243.705 191.339 278.86 180.576 313.977 169.825C315.974 169.214 317.971 168.603 319.968 167.992C321.7 167.462 323.587 166.935 325.285 167.568C326.982 168.201 328.086 170.561 326.845 171.877ZM150.805 42.4642C151.601 39.865 152.904 36.2735 154.943 34.4679C155.982 33.5472 157.39 32.5652 158.641 33.1706C159.427 33.5512 159.813 34.4311 160.135 35.2408C160.617 36.4517 161.306 38.0754 161.994 39.699C162.683 41.3226 163.371 42.9463 163.854 44.1572C164.53 45.8557 165.184 48.4953 163.944 49.3532C158.641 53.0214 159.847 66.4131 162.222 72.5748C162.789 74.046 163.276 77.0607 162.787 79.2585C162.298 81.4564 159.847 83.4334 157.843 82.3944C156.693 81.7984 154.869 78.6398 154.209 77.4959C154.148 77.3913 154.098 77.3036 154.058 77.2362C144.288 60.5789 149.704 45.5323 150.679 42.8234C150.74 42.6553 150.783 42.5347 150.805 42.4642ZM193.666 222.826C202.351 221.223 210.947 219.138 219.401 216.586C219.532 216.546 219.663 216.506 219.794 216.467C222.426 215.67 225.096 214.862 227.842 214.875C227.497 219.206 225.083 223.217 221.771 226.043C218.459 228.868 214.313 230.589 210.065 231.568C206.844 232.31 203.448 232.644 200.247 231.819C197.046 230.995 194.061 228.864 192.844 225.801C192.408 224.703 192.501 223.041 193.666 222.826ZM204.433 196.991C198.894 197.773 193.039 197.372 188.052 194.844C186.998 194.31 187.544 192.704 188.289 191.788C192.117 187.082 197.916 184.019 203.974 183.504C210.032 182.99 216.268 185.03 220.84 189.023C221.596 189.683 222.364 190.727 221.854 191.59C221.585 192.044 221.048 192.253 220.55 192.432C215.284 194.314 209.973 196.209 204.433 196.991ZM187.367 145.791C182.441 144.252 178.587 140.346 175.771 136.036C174.064 133.423 172.667 130.631 171.27 127.839C170.362 126.024 169.454 124.209 168.46 122.442C170.285 122.14 172.062 123.38 173.074 124.923C173.797 126.024 174.235 127.271 174.673 128.519C174.848 129.019 175.024 129.519 175.218 130.009C178.859 139.222 189.705 144.747 199.472 142.921C209.24 141.095 217.161 132.522 218.854 122.765C219.032 121.74 219.355 120.472 220.379 120.268C221.486 121.189 221.535 122.854 221.34 124.277C219.923 134.607 210.524 142.38 200.483 145.315C196.223 146.561 191.603 147.115 187.367 145.791ZM382.615 151.976C388.769 147.19 396.023 143.816 403.657 142.189C404.574 141.994 405.949 142.195 405.866 143.125C405.84 143.419 405.648 143.669 405.459 143.896C401.667 148.454 396.116 151.121 390.745 153.653C389.24 154.362 387.653 155.088 385.991 154.985C384.33 154.883 382.612 153.635 382.615 151.976ZM409.248 154.27C410.039 154.019 410.904 153.782 411.681 154.073C412.459 154.363 412.973 155.427 412.426 156.049C407.714 161.409 400.664 164.053 393.786 166.001C391.987 166.51 389.343 166.497 389.036 164.659C395.131 160.108 401.993 156.581 409.248 154.27ZM224.221 75.7505C224.618 73.298 225.094 70.3675 225.094 68.4722C225.094 65.8685 225.49 62.684 227.926 61.7568C230.262 60.8678 232.901 63.0006 233.351 65.4512C233.801 67.9018 231.023 77.7961 229.643 79.8739C229.013 80.8234 228.28 81.7704 227.242 82.2477C226.205 82.7251 224.793 82.5705 224.157 81.6243C223.827 81.1316 223.753 80.5164 223.696 79.9264C223.639 79.3349 223.906 77.6925 224.221 75.7505ZM224.276 44.9301C224.398 45.1044 224.451 45.316 224.499 45.5227C225.511 49.803 225.904 54.2281 225.661 58.6188C224.5 59.1391 223.539 57.5953 223.198 56.3735L221.739 51.1473C221.165 49.0903 220.703 46.5732 222.235 45.0813C222.792 44.5396 223.832 44.2938 224.276 44.9301ZM162.866 91.5003C161.358 90.4618 160.135 89.62 160.135 87.0507C160.135 84.0112 163.431 81.049 164.15 81.6243C166.762 83.7158 171.456 94.0879 171.691 97.4185C169.726 96.6188 168.277 95.5281 165.632 93.5366C165.056 93.1032 164.424 92.6271 163.717 92.1021C163.428 91.887 163.142 91.6904 162.866 91.5003ZM180.007 209.995L185.335 208.872C185.999 208.732 186.806 208.636 187.251 209.148C188.107 210.134 186.42 211.38 185.112 211.404C183.322 211.437 181.525 210.941 180.007 209.995ZM341.709 161.226C342.673 161.335 343.487 162.561 342.853 163.292L342.794 163.358C341.962 163.992 341.005 164.661 339.968 164.512C338.932 164.363 338.202 162.85 339.06 162.252C339.854 161.698 340.745 161.117 341.709 161.226ZM349.373 177.095L348.162 176.918L348.044 176.907L345.48 172.975C347.729 172.25 350.235 174.902 349.373 177.095ZM343.739 169.999C342.754 170.047 341.963 168.823 342.414 167.948C342.866 167.074 344.326 167.004 344.86 167.831C345.394 168.657 344.725 169.952 343.739 169.999ZM209.281 41.7716L200.022 46.1402C192.947 49.4779 184.06 48.6131 177.767 43.9746C176.879 43.7693 176.109 44.8275 176.259 45.7234C176.41 46.6194 177.14 47.2971 177.873 47.838C182.946 51.585 189.883 52.0544 196.003 50.5015C202.123 48.9486 207.611 45.6054 212.928 42.2104C212.543 40.8658 210.55 41.1731 209.281 41.7716ZM200.576 62.04C199.815 62.7183 198.497 61.7975 198.51 60.7803C198.522 59.7631 199.35 58.9454 200.203 58.3874C203.783 56.0477 208.916 56.4109 212.128 59.2312C211.419 60.3924 209.762 60.1232 208.366 59.8964C208.257 59.8786 208.149 59.8611 208.044 59.8446C205.394 59.4294 202.575 60.2582 200.576 62.04ZM183.426 65.8836C184.641 65.6073 185.927 64.6809 185.811 63.4447C185.714 62.4025 184.662 61.7107 183.65 61.4302C181.264 60.7687 178.524 61.6285 176.949 63.533C175.374 65.4374 175.052 68.2812 176.16 70.4881C176.693 70.0129 177.128 69.4277 177.56 68.8458C178.202 67.9821 178.838 67.1255 179.784 66.6455C180.501 66.2822 181.303 66.1855 182.108 66.0884H182.108L182.109 66.0884C182.551 66.035 182.995 65.9816 183.426 65.8836ZM207.607 79.6018C209.077 79.5809 210.068 78.0685 210.437 76.6512C211.197 73.7365 210.424 70.4695 208.438 68.1995C207.539 67.1719 206.007 66.3168 204.863 67.0649C204.509 67.2964 204.255 67.6518 204.05 68.0209C202.615 70.6048 203.334 73.8354 204.449 76.5713C205.036 78.0091 206.05 79.624 207.607 79.6018ZM189.03 79.6079L188.592 75.0628C188.425 73.3331 188.054 71.2995 186.472 70.568C184.311 69.5686 182.028 71.963 181.462 74.2688C180.854 76.7452 181.205 79.4429 182.427 81.6827C183.536 83.7142 186.295 85.4162 188.058 83.9122C189.226 82.9156 189.176 81.1331 189.03 79.6079ZM185.379 420.276C197.56 419.915 209.742 419.558 221.923 419.207C223.262 419.168 224.698 419.157 225.809 419.902C226.839 420.593 227.402 421.913 227.187 423.131L191.426 423.802C190.098 423.827 188.723 423.843 187.501 423.324C186.279 422.804 185.248 421.593 185.379 420.276ZM197.892 94.3175C196.586 93.946 197.202 92.0148 197.816 90.8079C199.799 86.909 198.682 82.1271 196.696 78.2295L196.646 78.133C196.205 77.2695 195.734 76.3472 195.891 75.3965C196.054 74.4102 197.301 73.59 198.081 74.2189C198.315 74.408 198.457 74.6849 198.593 74.9535C200.084 77.9135 201.547 80.9562 202.033 84.2326C202.518 87.5091 201.893 91.1058 199.638 93.5392C199.181 94.0314 198.538 94.5015 197.892 94.3175ZM199.84 106.735C205.954 105.758 210.858 99.826 210.649 93.6595C210.636 93.2926 210.603 92.9108 210.414 92.5959C209.883 91.7132 208.439 91.919 207.758 92.6923C207.197 93.3287 206.984 94.1719 206.774 95.0036C206.729 95.1826 206.683 95.3611 206.635 95.5369C205.818 98.5052 203.784 101.122 201.104 102.653C200.973 102.727 200.84 102.801 200.706 102.874C199.923 103.305 199.118 103.748 198.707 104.523C198.227 105.431 198.823 106.898 199.84 106.735ZM237.173 478.113C237.434 485.437 238.251 508.677 237.297 512.894C237.119 513.678 236.831 514.571 236.077 514.857C234.576 515.425 233.695 513.18 233.677 511.58C233.526 498.615 233.375 483.381 233.224 468.147L233.224 468.143C233.073 452.907 232.921 437.672 232.77 424.707C235.259 424.707 236.077 433.455 236.077 439.105C236.077 458.09 237.173 478.113 237.173 478.113ZM151.538 317.087C151.174 316.875 150.75 316.663 150.315 316.446C148.582 315.578 146.675 314.624 147.678 313.281C174.215 314.426 200.813 314.16 227.322 312.486C234.829 312.011 243.298 310.917 247.76 304.883C247.939 304.641 248.111 304.391 248.284 304.141C248.878 303.281 249.474 302.417 250.347 301.859C251.473 301.139 253.276 301.23 253.839 302.44C253.044 308.908 246.959 314.301 240.419 314.333C237.557 314.347 236.587 318.069 236.224 320.898C235.861 323.726 233.903 327.35 231.217 326.366C231.895 324.046 232.334 321.658 232.525 319.249C232.589 318.442 232.572 317.505 231.945 316.989C231.458 316.589 230.766 316.587 230.135 316.605L160.095 318.596C159.651 318.609 159.162 318.64 158.845 318.949C158.457 319.328 158.493 319.948 158.556 320.484L163.527 362.713C163.637 363.642 164.015 364.829 164.954 364.834L204.659 365.052C206.77 365.064 209.774 366.671 208.484 368.336C207.957 369.018 206.966 369.08 206.102 369.084L165.694 369.247C163.988 369.254 163.506 371.565 163.568 373.264L164.211 390.64C159.358 387.194 159.025 380.276 158.991 374.338C158.892 357.033 157.339 339.736 154.355 322.687C153.983 320.56 153.412 318.174 151.538 317.087Z" fill="#00160A"/>
<path fill-rule="evenodd" clip-rule="evenodd" d="M241.443 399.12C243.106 395.362 246.979 392.678 251.093 392.432C252.162 392.368 253.376 392.525 254.029 393.371C254.682 394.217 254.121 395.824 253.059 395.686C250.51 395.352 247.965 396.649 246.175 398.489C244.386 400.329 243.219 402.667 242.08 404.964C240.443 403.629 240.59 401.048 241.443 399.12Z" fill="#00160A"/>
<path fill-rule="evenodd" clip-rule="evenodd" d="M239.255 387.859C238.856 388.376 237.955 388.228 237.571 387.7C237.186 387.173 237.221 386.442 237.43 385.824C237.805 384.718 238.654 383.839 239.543 383.079C241.778 381.169 244.439 379.757 247.277 378.975C248.396 378.667 249.701 378.488 250.627 379.185C251.553 379.882 251.404 381.743 250.248 381.847C245.964 382.229 241.879 384.463 239.255 387.859Z" fill="#00160A"/>
<ellipse cx="182.736" cy="94.5145" rx="4.54" ry="4.52506" fill="#FFB61D"/>
<ellipse cx="215.31" cy="85.4345" rx="4.54002" ry="4.53999" fill="#FFB61D"/>
</svg>
