<svg width="63" height="18" viewBox="0 0 63 18" fill="none" xmlns="http://www.w3.org/2000/svg">
<path d="M20.852 14.168C19.8533 14.168 18.948 13.9533 18.136 13.524C17.3333 13.0853 16.6987 12.4833 16.232 11.718C15.7747 10.9433 15.546 10.0707 15.546 9.1C15.546 8.12933 15.7747 7.26133 16.232 6.496C16.6987 5.72133 17.3333 5.11933 18.136 4.69C18.948 4.25133 19.858 4.032 20.866 4.032C21.7153 4.032 22.4807 4.18133 23.162 4.48C23.8527 4.77867 24.4313 5.208 24.898 5.768L23.442 7.112C22.7793 6.34667 21.958 5.964 20.978 5.964C20.3713 5.964 19.83 6.09933 19.354 6.37C18.878 6.63133 18.5047 7 18.234 7.476C17.9727 7.952 17.842 8.49333 17.842 9.1C17.842 9.70667 17.9727 10.248 18.234 10.724C18.5047 11.2 18.878 11.5733 19.354 11.844C19.83 12.1053 20.3713 12.236 20.978 12.236C21.958 12.236 22.7793 11.8487 23.442 11.074L24.898 12.418C24.4313 12.9873 23.8527 13.4213 23.162 13.72C22.4713 14.0187 21.7013 14.168 20.852 14.168ZM30.8536 6.356C31.7869 6.356 32.5382 6.636 33.1076 7.196C33.6862 7.756 33.9756 8.58667 33.9756 9.688V14H31.7916V10.024C31.7916 9.42667 31.6609 8.98333 31.3996 8.694C31.1382 8.39533 30.7602 8.246 30.2656 8.246C29.7149 8.246 29.2762 8.41867 28.9496 8.764C28.6229 9.1 28.4596 9.604 28.4596 10.276V14H26.2756V3.612H28.4596V7.252C28.7489 6.96267 29.0989 6.74333 29.5096 6.594C29.9202 6.43533 30.3682 6.356 30.8536 6.356ZM35.9553 6.468H38.1393V14H35.9553V6.468ZM37.0473 5.418C36.6459 5.418 36.3193 5.30133 36.0673 5.068C35.8153 4.83467 35.6893 4.54533 35.6893 4.2C35.6893 3.85467 35.8153 3.56533 36.0673 3.332C36.3193 3.09867 36.6459 2.982 37.0473 2.982C37.4486 2.982 37.7753 3.094 38.0273 3.318C38.2793 3.542 38.4053 3.822 38.4053 4.158C38.4053 4.522 38.2793 4.82533 38.0273 5.068C37.7753 5.30133 37.4486 5.418 37.0473 5.418ZM49.8122 6.356C50.7549 6.356 51.5015 6.636 52.0522 7.196C52.6122 7.74667 52.8922 8.57733 52.8922 9.688V14H50.7082V10.024C50.7082 9.42667 50.5822 8.98333 50.3302 8.694C50.0875 8.39533 49.7375 8.246 49.2802 8.246C48.7669 8.246 48.3609 8.414 48.0622 8.75C47.7635 9.07667 47.6142 9.56667 47.6142 10.22V14H45.4302V10.024C45.4302 8.83867 44.9542 8.246 44.0022 8.246C43.4982 8.246 43.0969 8.414 42.7982 8.75C42.4995 9.07667 42.3502 9.56667 42.3502 10.22V14H40.1662V6.468H42.2522V7.336C42.5322 7.01867 42.8729 6.776 43.2742 6.608C43.6849 6.44 44.1329 6.356 44.6182 6.356C45.1502 6.356 45.6309 6.46333 46.0602 6.678C46.4895 6.88333 46.8349 7.18667 47.0962 7.588C47.4042 7.196 47.7915 6.89267 48.2582 6.678C48.7342 6.46333 49.2522 6.356 49.8122 6.356ZM58.7258 12.362C59.1178 12.362 59.4632 12.306 59.7618 12.194C60.0698 12.0727 60.3545 11.886 60.6158 11.634L61.7778 12.894C61.0685 13.706 60.0325 14.112 58.6698 14.112C57.8205 14.112 57.0692 13.9487 56.4158 13.622C55.7625 13.286 55.2585 12.824 54.9038 12.236C54.5492 11.648 54.3718 10.9807 54.3718 10.234C54.3718 9.49667 54.5445 8.834 54.8898 8.246C55.2445 7.64867 55.7252 7.18667 56.3318 6.86C56.9478 6.524 57.6385 6.356 58.4038 6.356C59.1225 6.356 59.7758 6.51 60.3638 6.818C60.9518 7.11667 61.4185 7.55533 61.7638 8.134C62.1185 8.70333 62.2958 9.38 62.2958 10.164L56.7238 11.242C56.8825 11.6153 57.1298 11.8953 57.4658 12.082C57.8112 12.2687 58.2312 12.362 58.7258 12.362ZM58.4038 8.008C57.8532 8.008 57.4052 8.18533 57.0598 8.54C56.7145 8.89467 56.5325 9.38467 56.5138 10.01L60.1818 9.296C60.0792 8.904 59.8692 8.59133 59.5518 8.358C59.2345 8.12467 58.8518 8.008 58.4038 8.008Z" fill="black"/>
<ellipse cx="4.33777" cy="11.7328" rx="2.04553" ry="2.5" transform="rotate(7.0722 4.33777 11.7328)" fill="#55E47D"/>
<path d="M10 10.5C10 12.7091 7.20914 13 5 13C2.79086 13 0 12.2091 0 10C0 7.79086 2.79086 5 5 5C7.20914 5 10 8.29086 10 10.5Z" fill="#21A446"/>
<circle cx="5.5" cy="4.5" r="2" fill="white" stroke="#31B757"/>
</svg>
